<svg width="30" height="30" viewBox="0 0 30 30" fill="none" xmlns="http://www.w3.org/2000/svg">
<path d="M15 2.5C12.5277 2.5 10.111 3.23311 8.05538 4.60663C5.99976 5.98015 4.39761 7.93238 3.45151 10.2165C2.50542 12.5005 2.25787 15.0139 2.74019 17.4386C3.2225 19.8634 4.41302 22.0907 6.16117 23.8388C7.90933 25.587 10.1366 26.7775 12.5614 27.2598C14.9861 27.7421 17.4995 27.4946 19.7836 26.5485C22.0676 25.6024 24.0199 24.0002 25.3934 21.9446C26.7669 19.889 27.5 17.4723 27.5 15C27.5 11.6848 26.183 8.50537 23.8388 6.16117C21.4946 3.81696 18.3152 2.5 15 2.5ZM20.2625 12.975L14.425 18.75C14.1942 18.9855 13.8797 19.1203 13.55 19.125C13.3846 19.1243 13.221 19.0908 13.0687 19.0264C12.9163 18.9621 12.7783 18.8681 12.6625 18.75L9.75001 15.8375C9.54522 15.5984 9.43822 15.2908 9.45037 14.9762C9.46252 14.6616 9.59293 14.3632 9.81555 14.1405C10.0382 13.9179 10.3366 13.7875 10.6512 13.7754C10.9658 13.7632 11.2734 13.8702 11.5125 14.075L13.55 16.1L18.55 11.1C18.7842 10.8672 19.101 10.7365 19.4313 10.7365C19.7615 10.7365 20.0783 10.8672 20.3125 11.1C20.4425 11.2208 20.5452 11.3679 20.6139 11.5315C20.6826 11.6951 20.7157 11.8714 20.7109 12.0488C20.7062 12.2262 20.6638 12.4005 20.5865 12.5602C20.5091 12.7199 20.3987 12.8613 20.2625 12.975Z" fill="#F1F1F1"/>
</svg>
