<svg width="20" height="20" viewBox="0 0 20 20" fill="none" xmlns="http://www.w3.org/2000/svg">
<path d="M17.4376 5.3003C14.8251 1.2503 9.47506 0.0502968 5.33756 2.5628C1.30006 5.0753 6.22272e-05 10.5503 2.61256 14.5878L2.82506 14.9128L1.95006 18.1878L5.22506 17.3128L5.55006 17.5253C6.96256 18.2878 8.50006 18.7253 10.0251 18.7253C11.6626 18.7253 13.3001 18.2878 14.7126 17.4128C18.7501 14.7878 19.9501 9.4253 17.4376 5.2753V5.3003ZM15.1501 13.7253C14.7126 14.3753 14.1626 14.8128 13.4001 14.9253C12.9626 14.9253 12.4126 15.1378 10.2376 14.2753C8.38756 13.4003 6.85006 11.9753 5.76256 10.3378C5.11256 9.5753 4.77506 8.5878 4.67506 7.6003C4.67506 6.7253 5.00006 5.9628 5.55006 5.4128C5.76256 5.2003 5.98756 5.0878 6.20006 5.0878H6.75006C6.96256 5.0878 7.18756 5.0878 7.30006 5.5253C7.51256 6.0753 8.06256 7.3878 8.06256 7.5003C8.17506 7.6128 8.12506 8.4503 7.62506 8.9253C7.35006 9.2378 7.30006 9.2503 7.41256 9.4753C7.85006 10.1253 8.40006 10.7878 8.93756 11.3378C9.58756 11.8878 10.2501 12.3253 11.0126 12.6503C11.2251 12.7628 11.4501 12.7628 11.5626 12.5378C11.6751 12.3253 12.2126 11.7753 12.4376 11.5503C12.6501 11.3378 12.7626 11.3378 12.9876 11.4378L14.7376 12.3128C14.9501 12.4253 15.1751 12.5253 15.2876 12.6378C15.4001 12.9628 15.4001 13.4003 15.1751 13.7253H15.1501Z" fill="#0F3D3E"/>
</svg>
