<svg width="25" height="25" viewBox="0 0 25 25" fill="none" xmlns="http://www.w3.org/2000/svg">
<path d="M12.5002 11.9793C11.8095 11.9793 11.1471 11.705 10.6587 11.2166C10.1704 10.7282 9.896 10.0658 9.896 9.37516C9.896 8.6845 10.1704 8.02212 10.6587 7.53374C11.1471 7.04536 11.8095 6.771 12.5002 6.771C13.1908 6.771 13.8532 7.04536 14.3416 7.53374C14.83 8.02212 15.1043 8.6845 15.1043 9.37516C15.1043 9.71715 15.037 10.0558 14.9061 10.3717C14.7752 10.6877 14.5834 10.9748 14.3416 11.2166C14.0998 11.4584 13.8127 11.6502 13.4967 11.7811C13.1808 11.912 12.8421 11.9793 12.5002 11.9793ZM12.5002 2.0835C10.5663 2.0835 8.71163 2.85172 7.34418 4.21918C5.97672 5.58663 5.2085 7.44129 5.2085 9.37516C5.2085 14.8439 12.5002 22.9168 12.5002 22.9168C12.5002 22.9168 19.7918 14.8439 19.7918 9.37516C19.7918 7.44129 19.0236 5.58663 17.6561 4.21918C16.2887 2.85172 14.434 2.0835 12.5002 2.0835Z" fill="#F1F1F1"/>
</svg>
