<svg width="12" height="11" viewBox="0 0 12 11" fill="none" xmlns="http://www.w3.org/2000/svg">
<path d="M8.67857 0C7.57232 0 6.60375 0.50887 6 1.36902C5.39625 0.50887 4.42768 0 3.32143 0C2.44084 0.00106171 1.59659 0.375727 0.97392 1.0418C0.351247 1.70787 0.000992538 2.61095 0 3.55292C0 7.56428 5.56018 10.8112 5.79696 10.9453C5.85937 10.9812 5.92913 11 6 11C6.07087 11 6.14063 10.9812 6.20304 10.9453C6.43982 10.8112 12 7.56428 12 3.55292C11.999 2.61095 11.6488 1.70787 11.0261 1.0418C10.4034 0.375727 9.55916 0.00106171 8.67857 0ZM6 10.0169C5.02179 9.40722 0.857143 6.62964 0.857143 3.55292C0.857993 2.85408 1.1179 2.18412 1.57985 1.68997C2.04181 1.19581 2.66812 0.917793 3.32143 0.916883C4.36339 0.916883 5.23821 1.51056 5.60357 2.46412C5.63586 2.54821 5.69079 2.62012 5.76138 2.67074C5.83196 2.72135 5.91502 2.74837 6 2.74837C6.08498 2.74837 6.16804 2.72135 6.23863 2.67074C6.30921 2.62012 6.36414 2.54821 6.39643 2.46412C6.76179 1.50885 7.63661 0.916883 8.67857 0.916883C9.33188 0.917793 9.95819 1.19581 10.4201 1.68997C10.8821 2.18412 11.142 2.85408 11.1429 3.55292C11.1429 6.62505 6.97714 9.40665 6 10.0169Z" fill="#E2DCC8"/>
</svg>
