<svg width="25" height="25" viewBox="0 0 25 25" fill="none" xmlns="http://www.w3.org/2000/svg">
<path fill-rule="evenodd" clip-rule="evenodd" d="M2.32725 4.53838C2.16945 4.72585 2.0831 4.96313 2.0835 5.20817V17.7082C2.0835 18.537 2.41274 19.3318 2.99879 19.9179C3.58484 20.5039 4.3797 20.8332 5.2085 20.8332H19.7918C20.6206 20.8332 21.4155 20.5039 22.0015 19.9179C22.5876 19.3318 22.9168 18.537 22.9168 17.7082V5.21859C22.9178 5.06337 22.8843 4.90986 22.8188 4.76917C22.7532 4.62847 22.6572 4.5041 22.5377 4.40505C22.3525 4.25165 22.1198 4.16733 21.8793 4.16651H3.12516C2.97305 4.16627 2.82273 4.19946 2.68485 4.26372C2.54698 4.32798 2.4249 4.42174 2.32725 4.53838ZM4.16683 7.72275V17.7082C4.16683 17.9844 4.27658 18.2494 4.47193 18.4447C4.66728 18.6401 4.93223 18.7498 5.2085 18.7498H19.7918C20.0681 18.7498 20.333 18.6401 20.5284 18.4447C20.7238 18.2494 20.8335 17.9844 20.8335 17.7082V7.72275L13.2366 15.3196C13.0413 15.5149 12.7764 15.6246 12.5002 15.6246C12.224 15.6246 11.959 15.5149 11.7637 15.3196L4.16683 7.72275Z" fill="#F1F1F1"/>
</svg>
