<svg width="20" height="20" viewBox="0 0 20 20" fill="none" xmlns="http://www.w3.org/2000/svg">
<path d="M10 2.03125C8.42393 2.03125 6.88326 2.49861 5.5728 3.37423C4.26235 4.24984 3.24097 5.49439 2.63784 6.95049C2.0347 8.40659 1.87689 10.0088 2.18437 11.5546C2.49185 13.1004 3.2508 14.5203 4.36525 15.6348C5.4797 16.7492 6.89959 17.5082 8.44538 17.8156C9.99116 18.1231 11.5934 17.9653 13.0495 17.3622C14.5056 16.759 15.7502 15.7377 16.6258 14.4272C17.5014 13.1167 17.9688 11.5761 17.9688 10C17.9663 7.88732 17.1259 5.86188 15.632 4.36798C14.1381 2.87409 12.1127 2.03373 10 2.03125ZM10 17.0312C8.60935 17.0312 7.24993 16.6189 6.09365 15.8463C4.93737 15.0737 4.03615 13.9755 3.50398 12.6907C2.9718 11.406 2.83255 9.9922 3.10386 8.62827C3.37516 7.26434 4.04482 6.01149 5.02816 5.02816C6.0115 4.04482 7.26435 3.37516 8.62827 3.10385C9.9922 2.83255 11.406 2.97179 12.6907 3.50397C13.9755 4.03615 15.0737 4.93736 15.8463 6.09365C16.6189 7.24993 17.0313 8.60935 17.0313 10C17.0292 11.8642 16.2877 13.6514 14.9696 14.9696C13.6514 16.2877 11.8642 17.0292 10 17.0312ZM7.34375 10C7.34375 10.5575 7.51917 11.1009 7.84514 11.5531C8.17112 12.0054 8.63113 12.3436 9.16002 12.5199C9.68891 12.6962 10.2599 12.7017 10.792 12.5354C11.3242 12.3692 11.7905 12.0398 12.125 11.5938C12.1997 11.4943 12.3108 11.4286 12.434 11.4111C12.5571 11.3936 12.6822 11.4257 12.7816 11.5004C12.8811 11.5751 12.9468 11.6862 12.9643 11.8094C12.9818 11.9325 12.9497 12.0576 12.875 12.157C12.4223 12.7603 11.7914 13.2058 11.0714 13.4305C10.3515 13.6552 9.57913 13.6478 8.86368 13.4092C8.14824 13.1706 7.52598 12.713 7.08505 12.1011C6.64411 11.4893 6.40684 10.7542 6.40684 10C6.40684 9.24582 6.64411 8.51075 7.08505 7.8989C7.52598 7.28704 8.14824 6.82941 8.86368 6.59082C9.57913 6.35223 10.3515 6.34477 11.0714 6.5695C11.7914 6.79422 12.4223 7.23975 12.875 7.84297C12.9497 7.94242 12.9818 8.06748 12.9643 8.19062C12.9468 8.31377 12.8811 8.42491 12.7816 8.49961C12.6822 8.57431 12.5571 8.60643 12.434 8.58892C12.3108 8.57142 12.1997 8.50571 12.125 8.40625C11.7905 7.96025 11.3242 7.6308 10.792 7.46457C10.2599 7.29834 9.68891 7.30376 9.16002 7.48006C8.63113 7.65636 8.17112 7.9946 7.84514 8.44686C7.51917 8.89913 7.34375 9.4425 7.34375 10Z" fill="#E2DCC8"/>
</svg>
