<svg width="25" height="25" viewBox="0 0 25 25" fill="none" xmlns="http://www.w3.org/2000/svg">
<path d="M21.7967 6.62488C18.5311 1.56238 11.8436 0.0623828 6.67171 3.20301C1.62483 6.34363 -0.000166297 13.1874 3.26546 18.2343L3.53108 18.6405L2.43733 22.7343L6.53108 21.6405L6.93733 21.9061C8.70296 22.8593 10.6248 23.4061 12.5311 23.4061C14.578 23.4061 16.6248 22.8593 18.3905 21.7655C23.4373 18.4843 24.9373 11.7811 21.7967 6.59363V6.62488ZM18.9373 17.1561C18.3905 17.9686 17.703 18.5155 16.7498 18.6561C16.203 18.6561 15.5155 18.9218 12.7967 17.8436C10.4842 16.7499 8.56233 14.9686 7.20296 12.9218C6.39046 11.9686 5.96858 10.7343 5.84358 9.49988C5.84358 8.40613 6.24983 7.45301 6.93733 6.76551C7.20296 6.49988 7.48421 6.35926 7.74983 6.35926H8.43733C8.70296 6.35926 8.98421 6.35926 9.12483 6.90613C9.39046 7.59363 10.078 9.23426 10.078 9.37488C10.2186 9.51551 10.1561 10.5624 9.53108 11.1561C9.18733 11.5468 9.12483 11.5624 9.26546 11.8436C9.81233 12.6561 10.4998 13.4843 11.1717 14.1718C11.9842 14.8593 12.8123 15.4061 13.7655 15.8124C14.0311 15.953 14.3123 15.953 14.453 15.6718C14.5936 15.4061 15.2655 14.7186 15.5467 14.4374C15.8123 14.1718 15.953 14.1718 16.2342 14.2968L18.4217 15.3905C18.6873 15.5311 18.9686 15.6561 19.1092 15.7968C19.2498 16.203 19.2498 16.7499 18.9686 17.1561H18.9373Z" fill="#F1F1F1"/>
</svg>
