<svg width="25" height="25" viewBox="0 0 25 25" fill="none" xmlns="http://www.w3.org/2000/svg">
<path d="M21.7967 6.62501C18.5311 1.5625 11.8436 0.0625049 6.67171 3.20313C1.62483 6.34376 -0.000166297 13.1875 3.26546 18.2344L3.53108 18.6406L2.43733 22.7344L6.53108 21.6406L6.93733 21.9063C8.70296 22.8594 10.6248 23.4063 12.5311 23.4063C14.578 23.4063 16.6248 22.8594 18.3905 21.7656C23.4373 18.4844 24.9373 11.7813 21.7967 6.59376V6.62501ZM18.9373 17.1563C18.3905 17.9688 17.703 18.5156 16.7498 18.6563C16.203 18.6563 15.5155 18.9219 12.7967 17.8438C10.4842 16.75 8.56233 14.9688 7.20296 12.9219C6.39046 11.9688 5.96858 10.7344 5.84358 9.50001C5.84358 8.40626 6.24983 7.45313 6.93733 6.76563C7.20296 6.50001 7.48421 6.35938 7.74983 6.35938H8.43733C8.70296 6.35938 8.98421 6.35938 9.12483 6.90626C9.39046 7.59376 10.078 9.23438 10.078 9.37501C10.2186 9.51563 10.1561 10.5625 9.53108 11.1563C9.18733 11.5469 9.12483 11.5625 9.26546 11.8438C9.81233 12.6563 10.4998 13.4844 11.1717 14.1719C11.9842 14.8594 12.8123 15.4063 13.7655 15.8125C14.0311 15.9531 14.3123 15.9531 14.453 15.6719C14.5936 15.4063 15.2655 14.7188 15.5467 14.4375C15.8123 14.1719 15.953 14.1719 16.2342 14.2969L18.4217 15.3906C18.6873 15.5313 18.9686 15.6563 19.1092 15.7969C19.2498 16.2031 19.2498 16.75 18.9686 17.1563H18.9373Z" fill="white"/>
</svg>
